<svg aria-hidden="true" style="position: absolute; width: 0; height: 0; overflow: hidden;" version="1.1" xmlns="http://www.w3.org/2000/svg" xmlns:xlink="http://www.w3.org/1999/xlink">
<defs>
<symbol id="icon-create" viewBox="0 0 24 24">
<path d="M20.719 7.031l-1.828 1.828-3.75-3.75 1.828-1.828q0.281-0.281 0.703-0.281t0.703 0.281l2.344 2.344q0.281 0.281 0.281 0.703t-0.281 0.703zM3 17.25l11.063-11.063 3.75 3.75-11.063 11.063h-3.75v-3.75z"></path>
</symbol>
<symbol id="icon-pedal_bike" viewBox="0 0 24 24">
<path d="M18.188 9.984l-1.688-4.688q-0.234-0.563-0.75-0.938t-1.172-0.375h-2.578v2.016h2.578l1.5 3.984h-4.828l-0.375-0.984h1.125v-2.016h-5.016v2.016h1.781l1.781 5.016h-0.656q-0.188-1.125-0.867-2.016t-1.641-1.406-2.133-0.563q-1.406-0.094-2.602 0.586t-1.922 1.828-0.727 2.555 0.656 2.531 1.805 1.805 2.555 0.68q1.219 0 2.25-0.516t1.711-1.43 0.914-2.086h4.219q0.188 1.125 0.867 2.016t1.641 1.406 2.133 0.563q1.406 0.094 2.602-0.586t1.922-1.828 0.727-2.555-0.656-2.531-1.805-1.805-2.555-0.68h-0.797zM7.828 15.984q-0.328 0.891-1.078 1.453t-1.734 0.563q-0.844 0-1.523-0.398t-1.078-1.078-0.398-1.523 0.398-1.523 1.078-1.078 1.523-0.398q0.984 0 1.734 0.563t1.078 1.453h-2.813v1.969h2.813zM14.109 14.016h-1.406l-0.75-2.016h3.047q-0.328 0.422-0.563 0.938t-0.328 1.078zM18.984 18q-0.844 0-1.523-0.398t-1.078-1.078-0.398-1.523q0-0.703 0.281-1.289t0.797-1.008l0.938 2.672 1.875-0.703-0.938-2.672h0.094q0.797 0 1.477 0.398t1.102 1.078 0.422 1.523-0.422 1.523-1.102 1.078-1.523 0.398z"></path>
</symbol>
<symbol id="icon-videogame_asset" viewBox="0 0 24 24">
<path d="M19.5 12q0.656 0 1.078-0.422t0.422-1.078-0.422-1.078-1.078-0.422-1.078 0.422-0.422 1.078 0.422 1.078 1.078 0.422zM15.516 15q0.609 0 1.055-0.422t0.445-1.078-0.445-1.078-1.055-0.422-1.055 0.422-0.445 1.078 0.445 1.078 1.055 0.422zM11.016 12.984v-1.969h-3v-3h-2.016v3h-3v1.969h3v3h2.016v-3h3zM21 6q0.797 0 1.406 0.609t0.609 1.406v7.969q0 0.797-0.609 1.406t-1.406 0.609h-18q-0.797 0-1.406-0.609t-0.609-1.406v-7.969q0-0.797 0.609-1.406t1.406-0.609h18z"></path>
</symbol>
<symbol id="icon-theater_comedy" viewBox="0 0 24 24">
<path d="M18.984 8.063q0.422 0 0.727-0.281t0.305-0.703-0.305-0.703-0.727-0.281-0.703 0.281-0.281 0.703 0.281 0.703 0.703 0.281zM14.016 8.063q0.422 0 0.703-0.281t0.281-0.703-0.281-0.703-0.703-0.281-0.727 0.281-0.305 0.703 0.305 0.703 0.727 0.281zM11.016 3h10.969v6.516q0 2.297-1.594 3.891t-3.891 1.594q-1.266 0-2.484-0.609v-2.906h4.969q0-0.609-0.727-1.055t-1.758-0.445-1.758 0.445-0.727 1.055v-2.484h-3v-6zM5.016 12.984q-0.422 0-0.727 0.305t-0.305 0.727 0.305 0.703 0.727 0.281 0.703-0.281 0.281-0.703-0.281-0.727-0.703-0.305zM9.984 12.984q-0.422 0-0.703 0.305t-0.281 0.727 0.281 0.703 0.703 0.281 0.727-0.281 0.305-0.703-0.305-0.727-0.727-0.305zM7.5 18.516q1.031 0 1.758-0.445t0.727-1.055h-4.969q0 0.609 0.727 1.055t1.758 0.445zM2.016 16.5v-6.516h10.969v6.516q0 2.297-1.594 3.891t-3.891 1.594-3.891-1.594-1.594-3.891z"></path>
</symbol>
</defs>
</svg>
